<svg xmlns="http://www.w3.org/2000/svg" width="27.915" height="24.14" viewBox="0 0 27.915 24.14"><defs><style>.a{fill:#fff;}</style></defs><g transform="translate(0 -17.081)"><path class="a" d="M25.981,17.081H1.934A1.936,1.936,0,0,0,0,19.015V35.33a1.936,1.936,0,0,0,1.934,1.934H15.956l-.423,2.582a1.116,1.116,0,0,0,1.683,1.213l3.025-1.592a.636.636,0,0,1,.4,0l3.025,1.592a1.349,1.349,0,0,0,.627.163,1.061,1.061,0,0,0,.626-.2,1.174,1.174,0,0,0,.43-1.178l-.423-2.582h1.053a1.936,1.936,0,0,0,1.934-1.934V19.015A1.936,1.936,0,0,0,25.981,17.081ZM20.442,33.949a3.37,3.37,0,1,1,3.37-3.37A3.374,3.374,0,0,1,20.442,33.949ZM21.415,38a2.236,2.236,0,0,0-1.945,0l-2.139,1.126.68-4.148a5.015,5.015,0,0,0,4.863,0l.265,1.617s0,.006,0,.008l.414,2.523Zm4.843-2.669a.28.28,0,0,1-.276.276H24.656l-.3-1.846c0-.007,0-.014,0-.022a5.027,5.027,0,1,0-7.814,0c0,.007,0,.014,0,.021l-.3,1.848H1.934a.28.28,0,0,1-.276-.276V19.015a.28.28,0,0,1,.276-.276H25.981a.28.28,0,0,1,.276.276Z"/><path class="a" d="M50.731,60.243H31.948a.829.829,0,1,0,0,1.657H50.731a.829.829,0,1,0,0-1.657Z" transform="translate(-27.681 -38.393)"/><path class="a" d="M39.9,100.911H31.948a.829.829,0,0,0,0,1.657H39.9a.829.829,0,1,0,0-1.657Z" transform="translate(-27.681 -74.567)"/></g></svg>