<svg xmlns="http://www.w3.org/2000/svg" width="15.968" height="27.92" viewBox="0 0 15.968 27.92"><defs><style>.a{fill:#fff;}</style></defs><g transform="translate(-109.589 0)"><g transform="translate(109.589 0)"><path class="a" d="M118.806,12.215v-6.2A8.272,8.272,0,0,1,122.455,7.6a1.306,1.306,0,0,0,.723.229,1.515,1.515,0,0,0,1.516-1.5,1.346,1.346,0,0,0-.388-.952,9.3,9.3,0,0,0-5.516-2.221V1.077A1.075,1.075,0,0,0,117.714,0a.263.263,0,0,0-.037,0,1.093,1.093,0,0,0-1.109,1.077V3.086c-3.965.282-6.662,2.732-6.662,5.992,0,4,3.4,5.111,6.662,5.992v7.05a9.148,9.148,0,0,1-4.67-2.062,1.467,1.467,0,0,0-.881-.317,1.534,1.534,0,0,0-1.428,1.551,1.346,1.346,0,0,0,.388.952,10.38,10.38,0,0,0,6.609,2.661v1.939c0,.012,0,.025,0,.037a1.091,1.091,0,0,0,1.144,1.038,1.075,1.075,0,0,0,1.075-1.075V24.869c4.811-.317,6.75-3.243,6.75-6.345C125.556,14.365,122.067,13.1,118.806,12.215Zm-2.221-.564c-1.921-.564-3.419-1.146-3.419-2.785s1.357-2.82,3.419-2.978Zm2.221,10.5V15.74c1.992.564,3.542,1.322,3.525,3.172C122.331,20.252,121.415,21.838,118.806,22.155Z" transform="translate(-109.589 0)"/></g></g></svg>