<svg xmlns="http://www.w3.org/2000/svg" width="27.915" height="19.941" viewBox="0 0 27.915 19.941"><defs><style>.a{fill:#fff;}</style></defs><path class="a" d="M16.8,25.46a15.624,15.624,0,0,1-8.4-2.639A3.15,3.15,0,0,1,7,20.15V14.038a.982.982,0,1,1,1.961,0V20.15a1.057,1.057,0,0,0,.449.887c4.977,3.142,9.814,3.142,14.787,0a1.054,1.054,0,0,0,.451-.887V14.038a.982.982,0,1,1,1.961,0V20.15A3.15,3.15,0,0,1,25.2,22.82,15.624,15.624,0,0,1,16.8,25.46Z" transform="translate(-2.847 -5.519)"/><path class="a" d="M18.958,22.71a1.013,1.013,0,0,1-.419-.09L5.578,16.745a.973.973,0,0,1,0-1.778L18.539,9.091a1.008,1.008,0,0,1,.837,0l12.961,5.876a.973.973,0,0,1,0,1.778L19.376,22.62a1.013,1.013,0,0,1-.419.09ZM8.376,15.855l10.582,4.8,10.582-4.8-10.582-4.8Z" transform="translate(-5 -8.999)"/></svg>