<svg xmlns="http://www.w3.org/2000/svg" width="27.915" height="27.918" viewBox="0 0 27.915 27.918"><defs><style>.a{fill:#fff;}</style></defs><path class="a" d="M27.665,12.142l0,0L16.275.752a2.57,2.57,0,0,0-3.635,0L1.258,12.134l-.012.012a2.569,2.569,0,0,0,1.71,4.379c.026,0,.053,0,.079,0H3.49v8.381A3.012,3.012,0,0,0,6.5,27.917h4.455a.818.818,0,0,0,.818-.818V20.529a1.374,1.374,0,0,1,1.373-1.372h2.628a1.374,1.374,0,0,1,1.372,1.372V27.1a.818.818,0,0,0,.818.818h4.455a3.011,3.011,0,0,0,3.008-3.008V16.529h.421a2.571,2.571,0,0,0,1.819-4.386Zm-1.158,2.477a.929.929,0,0,1-.661.274H24.608a.818.818,0,0,0-.818.818v9.2a1.374,1.374,0,0,1-1.372,1.372H18.78V20.529a3.012,3.012,0,0,0-3.008-3.008H13.144a3.012,3.012,0,0,0-3.008,3.008v5.753H6.5a1.374,1.374,0,0,1-1.372-1.372v-9.2a.818.818,0,0,0-.818-.818H3.09l-.038,0A.933.933,0,0,1,2.408,13.3h0L13.8,1.909a.934.934,0,0,1,1.321,0L26.5,13.294l.005.005a.936.936,0,0,1,0,1.32Zm0,0" transform="translate(-0.5 0.001)"/></svg>