<svg xmlns="http://www.w3.org/2000/svg" width="27.92" height="25.556" viewBox="0 0 27.92 25.556"><defs><style>.a{fill:#fff;}</style></defs><g transform="translate(0 -21.675)"><path class="a" d="M426.95,297.031a.864.864,0,1,0-1.222,1.222L427.471,300a.864.864,0,0,0,1.222-1.222Z" transform="translate(-402.539 -260.227)"/><path class="a" d="M426.339,120.25a.862.862,0,0,0,.611-.253l1.743-1.743a.864.864,0,0,0-1.222-1.222l-1.743,1.743a.864.864,0,0,0,.611,1.475Z" transform="translate(-402.539 -89.961)"/><path class="a" d="M442.537,221.907h-2.465a.864.864,0,0,0,0,1.728h2.465a.864.864,0,1,0,0-1.728Z" transform="translate(-415.481 -189.355)"/><path class="a" d="M21.454,21.779a.8.8,0,0,0-.815.016l-9.231,5.737H7.31a3.123,3.123,0,0,0-2.347.873,3.293,3.293,0,0,0-.6.775H2.337A2.357,2.357,0,0,0,0,31.552v3.72a2.357,2.357,0,0,0,2.337,2.371H4.361a3.538,3.538,0,0,0,1.41,1.4L2.963,43.979a.829.829,0,0,0-.079.626.816.816,0,0,0,.383.5l3.556,2.025a.793.793,0,0,0,.394.1.8.8,0,0,0,.7-.409l4.01-7.049,8.723,5.261a.8.8,0,0,0,.81.008.82.82,0,0,0,.407-.711V22.493a.82.82,0,0,0-.412-.714ZM2.337,36.007a.731.731,0,0,1-.725-.735v-3.72a.731.731,0,0,1,.725-.735H3.93c0,.012,0,.024,0,.037v5.117c0,.012,0,.024,0,.037Zm3.2-5.154A1.74,1.74,0,0,1,6.068,29.6a1.54,1.54,0,0,1,1.171-.43h3.591v8.661H7.314a1.889,1.889,0,0,1-1.772-1.858ZM6.917,45.3,4.767,44.08l2.578-4.532a.825.825,0,0,0,.041-.083h2.853Zm13.337-2.411-7.813-4.712V28.809l7.813-4.855Z"/></g></svg>