<svg xmlns="http://www.w3.org/2000/svg" width="27.278" height="27.92" viewBox="0 0 27.278 27.92"><defs><style>.a{fill:#fff;}</style></defs><g transform="translate(0)"><path class="a" d="M194.87,282.456a.9.9,0,0,0,1.267,0l3.2-3.2a.9.9,0,1,0-1.268-1.268l-2.566,2.566-1.17-1.17a.9.9,0,1,0-1.268,1.268Zm0,0" transform="translate(-182.562 -262.841)"/><path class="a" d="M137.22,214.047a7.115,7.115,0,1,0-7.115-7.115A7.123,7.123,0,0,0,137.22,214.047Zm0-12.438a5.323,5.323,0,1,1-5.323,5.323A5.329,5.329,0,0,1,137.22,201.609Zm0,0" transform="translate(-123.581 -190.405)"/><path class="a" d="M24.612,1.755h-1.5V.824a.824.824,0,1,0-1.649,0v.931H19.84V.824a.824.824,0,0,0-1.649,0v.931h-9.1V.824a.824.824,0,0,0-1.649,0v.931H5.819V.824a.824.824,0,0,0-1.649,0v.931h-1.5A2.669,2.669,0,0,0,0,4.422V25.254A2.669,2.669,0,0,0,2.666,27.92H24.612a2.669,2.669,0,0,0,2.666-2.666V4.422a2.669,2.669,0,0,0-2.666-2.666Zm1.017,23.5a1.018,1.018,0,0,1-1.017,1.017H2.666a1.019,1.019,0,0,1-1.017-1.017V8.61H25.629ZM1.649,4.422A1.019,1.019,0,0,1,2.666,3.4h1.5v.931a.824.824,0,0,0,1.649,0V3.4h1.62v.931a.824.824,0,0,0,1.649,0V3.4h9.1v.931a.824.824,0,0,0,1.649,0V3.4h1.62v.931a.824.824,0,0,0,1.649,0V3.4h1.5A1.019,1.019,0,0,1,25.63,4.422v2.54H1.649Zm0,0" transform="translate(0 0)"/></g></svg>