<svg xmlns="http://www.w3.org/2000/svg" width="24.988" height="24.988" viewBox="0 0 24.988 24.988"><defs><style>.a{fill:none;stroke:#fff;stroke-linecap:round;stroke-linejoin:round;stroke-width:1.5px;}</style></defs><path class="a" d="M27.988,15.592a10.935,10.935,0,0,1-1.174,4.959A11.092,11.092,0,0,1,16.9,26.683a10.935,10.935,0,0,1-4.959-1.174L4.5,27.988,6.979,20.55A10.935,10.935,0,0,1,5.8,15.592a11.092,11.092,0,0,1,6.133-9.917A10.935,10.935,0,0,1,16.9,4.5h.652A11.066,11.066,0,0,1,27.988,14.939Z" transform="translate(-3.75 -3.75)"/></svg>