<svg xmlns="http://www.w3.org/2000/svg" width="27.915" height="24.535" viewBox="0 0 27.915 24.535"><defs><style>.a{fill:#fff;}</style></defs><path class="a" d="M27.1,3.272h-7.42V2.453A2.456,2.456,0,0,0,17.229,0H10.687A2.456,2.456,0,0,0,8.233,2.453v.818H.818A.82.82,0,0,0,0,4.089V22.081a2.456,2.456,0,0,0,2.453,2.453H25.462a2.456,2.456,0,0,0,2.453-2.453V4.1a.794.794,0,0,0-.813-.832ZM9.869,2.453a.819.819,0,0,1,.818-.818h6.543a.819.819,0,0,1,.818.818v.818H9.869ZM25.963,4.907l-2.54,7.619a.816.816,0,0,1-.776.559h-4.6v-.818a.818.818,0,0,0-.818-.818H10.687a.818.818,0,0,0-.818.818v.818h-4.6a.816.816,0,0,1-.776-.559L1.953,4.907Zm-9.552,8.178v1.636H11.5V13.085Zm9.868,9a.819.819,0,0,1-.818.818H2.454a.819.819,0,0,1-.818-.818V9.129l1.3,3.915a2.45,2.45,0,0,0,2.327,1.678h4.6v.818a.818.818,0,0,0,.818.818h6.543a.818.818,0,0,0,.818-.818v-.818h4.6a2.45,2.45,0,0,0,2.327-1.678l1.3-3.915Zm0,0" transform="translate(0)"/></svg>