<svg xmlns="http://www.w3.org/2000/svg" width="25.271" height="25.237" viewBox="0 0 25.271 25.237"><defs><style>.a{fill:#fff;}</style></defs><g transform="translate(0 -0.033)"><path class="a" d="M17,24.689H7.526A.527.527,0,0,1,7,24.162V11.526A.527.527,0,0,1,7.526,11H17a.527.527,0,0,1,.526.526V24.162A.527.527,0,0,1,17,24.689Zm-8.95-1.053h8.424V12.053H8.053Z" transform="translate(0.371 0.581)"/><path class="a" d="M23.9,24.265H16.526A.527.527,0,0,1,16,23.738V19.526A.527.527,0,0,1,16.526,19H23.9a.527.527,0,0,1,.526.526v4.212A.527.527,0,0,1,23.9,24.265Zm-6.844-1.053h6.318V20.053H17.053Z" transform="translate(0.848 1.005)"/><path class="a" d="M7.9,24.371H.526A.527.527,0,0,1,0,23.844V17.526A.527.527,0,0,1,.526,17H7.9a.527.527,0,0,1,.526.526v6.318A.527.527,0,0,1,7.9,24.371ZM1.053,23.318H7.371V18.053H1.053Z" transform="translate(0 0.899)"/><path class="a" d="M12.053,20.265a.527.527,0,0,1-.526-.526V16.053a.526.526,0,0,1,0-1.053h.526a.527.527,0,0,1,.526.526v4.212A.527.527,0,0,1,12.053,20.265Z" transform="translate(0.583 0.793)"/><path class="a" d="M14.841,9.475a.524.524,0,0,1-.3-.092l-2.307-1.57L9.931,9.383a.527.527,0,0,1-.807-.564l.718-2.833L7.684,4.143A.526.526,0,0,1,8,3.217l2.75-.156,1-2.717a.547.547,0,0,1,.988,0l1,2.717,2.75.156a.526.526,0,0,1,.312.926L14.633,5.987l.718,2.833a.526.526,0,0,1-.208.56A.514.514,0,0,1,14.841,9.475Zm-2.6-2.825a.524.524,0,0,1,.3.092l1.456.99-.458-1.8A.529.529,0,0,1,13.7,5.4l1.41-1.2-1.787-.1a.526.526,0,0,1-.464-.344l-.621-1.692-.621,1.693a.524.524,0,0,1-.464.344l-1.788.1,1.41,1.2a.525.525,0,0,1,.168.53l-.458,1.8,1.456-.99a.531.531,0,0,1,.3-.093Z" transform="translate(0.397)"/></g></svg>