<svg xmlns="http://www.w3.org/2000/svg" width="27.92" height="17.45" viewBox="0 0 27.92 17.45"><defs><style>.a{fill:#fff;}</style></defs><g transform="translate(0 -96)"><g transform="translate(0 96)"><path class="a" d="M27.237,102.306l.683-.115V96H0v6.191l.683.115a2.454,2.454,0,0,1,0,4.838L0,107.259v6.191H27.92v-6.191l-.683-.115a2.454,2.454,0,0,1,0-4.838Zm-.953,6.276v3.232h-6v-1.336H18.65v1.336H1.636v-3.232a4.092,4.092,0,0,0,0-7.715V97.636H18.65v1.336h1.636V97.636h6v3.232a4.092,4.092,0,0,0,0,7.715Z" transform="translate(0 -96)"/></g><g transform="translate(18.664 105.597)"><rect class="a" width="1.616" height="3.232"/></g><g transform="translate(18.664 100.621)"><rect class="a" width="1.616" height="3.232"/></g></g></svg>