<svg xmlns="http://www.w3.org/2000/svg" width="27.92" height="20.94" viewBox="0 0 27.92 20.94"><defs><style>.a{fill:#fff;}</style></defs><path class="a" d="M25.3,59.882H2.618A2.62,2.62,0,0,0,0,62.5V78.2a2.62,2.62,0,0,0,2.618,2.618H25.3A2.62,2.62,0,0,0,27.92,78.2V62.5A2.62,2.62,0,0,0,25.3,59.882Zm0,1.745a.867.867,0,0,1,.334.068L13.96,71.815,2.283,61.695a.868.868,0,0,1,.334-.068Zm0,17.45H2.618a.873.873,0,0,1-.873-.873V63.538L13.388,73.629a.874.874,0,0,0,1.143,0L26.175,63.538V78.2A.873.873,0,0,1,25.3,79.077Z" transform="translate(0 -59.882)"/></svg>