<svg xmlns="http://www.w3.org/2000/svg" width="27.915" height="24.717" viewBox="0 0 27.915 24.717"><defs><style>.a{fill:#fff;}</style></defs><g transform="translate(0 0)"><path class="a" d="M27.915,29.333H16.138a2.99,2.99,0,0,0-2.181.944,2.99,2.99,0,0,0-2.181-.944H0V49H6.269a8.377,8.377,0,0,0,15.378,0h6.269ZM26.28,47.362H22.164a8.413,8.413,0,0,0-.048-3.6h1.9V42.128H21.548a8.4,8.4,0,0,0-1.188-1.854h3.657V38.638H18.505a8.323,8.323,0,0,0-3.73-1.3v-5a1.365,1.365,0,0,1,1.363-1.363H26.28ZM13.958,52.414A6.743,6.743,0,1,1,20.7,45.671,6.75,6.75,0,0,1,13.958,52.414ZM1.636,30.969H11.777a1.365,1.365,0,0,1,1.363,1.363v5a8.324,8.324,0,0,0-3.73,1.3H3.9v1.636H7.555a8.4,8.4,0,0,0-1.188,1.854H3.9v1.636H5.8a8.413,8.413,0,0,0-.048,3.6H1.636Z" transform="translate(0 -29.333)"/><path class="a" d="M71.5,136h6.979v1.636H71.5Z" transform="translate(-67.602 -130.184)"/><path class="a" d="M312.5,136h6.979v1.636H312.5Z" transform="translate(-295.462 -130.184)"/><path class="a" d="M207.992,260.71v-1.416l-5.665-3.271-1.227.708v6.541l1.227.708Zm-5.256-2.562L205.947,260l-3.211,1.854Z" transform="translate(-190.136 -243.663)"/></g></svg>