<svg xmlns="http://www.w3.org/2000/svg" width="27.915" height="24.426" viewBox="0 0 27.915 24.426"><defs><style>.a{fill:#fff;}</style></defs><g transform="translate(0 -32)"><g transform="translate(13.643 32)"><path class="a" d="M254.034,32a5.225,5.225,0,0,0-3.519,1.361.873.873,0,0,0,1.174,1.291,3.487,3.487,0,1,1,3.018,6,.872.872,0,0,0,.164,1.729.9.9,0,0,0,.166-.016,5.231,5.231,0,0,0-1-10.365Z" transform="translate(-250.23 -32)"/></g><g transform="translate(16.068 44.219)"><path class="a" d="M306.549,260.434a.886.886,0,0,0-.037-.18.868.868,0,0,0-.044-.15.773.773,0,0,0-.085-.127.934.934,0,0,0-.115-.145.357.357,0,0,0-.024-.03,15.681,15.681,0,0,0-10.7-3.676.874.874,0,0,0-.837.905.861.861,0,0,0,.905.837,13.932,13.932,0,0,1,9.2,3.032v2.186h-2.617a.872.872,0,0,0,0,1.745h2.617a1.748,1.748,0,0,0,1.745-1.745v-2.617C306.556,260.457,306.549,260.446,306.549,260.434Z" transform="translate(-294.709 -256.115)"/></g><g transform="translate(5.234 35.489)"><path class="a" d="M101.234,96a5.234,5.234,0,1,0,5.234,5.234A5.24,5.24,0,0,0,101.234,96Zm0,8.723a3.489,3.489,0,1,1,3.489-3.489A3.493,3.493,0,0,1,101.234,104.723Z" transform="translate(-96 -96)"/></g><g transform="translate(0 47.697)"><path class="a" d="M20.929,324.227a.888.888,0,0,0-.037-.18.872.872,0,0,0-.044-.15.762.762,0,0,0-.087-.129.828.828,0,0,0-.115-.143c-.01-.009-.014-.021-.024-.03a15.793,15.793,0,0,0-20.313,0c-.01.009-.014.021-.024.03a.859.859,0,0,0-.115.145.956.956,0,0,0-.085.127.872.872,0,0,0-.044.15.887.887,0,0,0-.037.18c0,.012,0,.023,0,.037v2.617a1.748,1.748,0,0,0,1.745,1.745H19.192a1.748,1.748,0,0,0,1.745-1.745v-2.617C20.936,324.249,20.929,324.239,20.929,324.227Zm-1.738,2.654H1.745v-2.186a14.028,14.028,0,0,1,17.447,0Z" transform="translate(0 -319.896)"/></g></g></svg>