<svg xmlns="http://www.w3.org/2000/svg" width="20.989" height="26.211" viewBox="0 0 20.989 26.211"><defs><style>.a{fill:#fff;}</style></defs><g transform="translate(-51)"><path class="a" d="M69.686,0H56.375a2.306,2.306,0,0,0-2.3,2.3v.768H53.3a2.306,2.306,0,0,0-2.3,2.3V23.907a2.306,2.306,0,0,0,2.3,2.3h13.31a2.306,2.306,0,0,0,2.3-2.3v-.768h.768a2.306,2.306,0,0,0,2.3-2.3V2.3A2.306,2.306,0,0,0,69.686,0Zm-2.3,23.907a.769.769,0,0,1-.768.768H53.3a.769.769,0,0,1-.768-.768V5.375a.769.769,0,0,1,.768-.768h.768V20.836a2.306,2.306,0,0,0,2.3,2.3H67.382Zm3.072-3.072a.769.769,0,0,1-.768.768H56.375a.769.769,0,0,1-.768-.768V2.3a.769.769,0,0,1,.768-.768h13.31a.769.769,0,0,1,.768.768Z"/><path class="a" d="M297.683,62h-4.1a.768.768,0,0,0,0,1.536h4.1a.768.768,0,1,0,0-1.536Z" transform="translate(-229.44 -58.826)"/><path class="a" d="M297.683,242h-4.1a.768.768,0,0,0,0,1.536h4.1a.768.768,0,1,0,0-1.536Z" transform="translate(-229.44 -229.611)"/><path class="a" d="M297.683,182h-4.1a.768.768,0,0,0,0,1.536h4.1a.768.768,0,1,0,0-1.536Z" transform="translate(-229.44 -172.683)"/><path class="a" d="M297.683,122h-4.1a.768.768,0,0,0,0,1.536h4.1a.768.768,0,1,0,0-1.536Z" transform="translate(-229.44 -115.754)"/><path class="a" d="M297.683,302h-4.1a.768.768,0,0,0,0,1.536h4.1a.768.768,0,1,0,0-1.536Z" transform="translate(-229.44 -286.54)"/><path class="a" d="M297.683,362h-4.1a.768.768,0,0,0,0,1.536h4.1a.768.768,0,1,0,0-1.536Z" transform="translate(-229.44 -343.468)"/><path class="a" d="M174.483,71.012l-1.629,1.629-.528-.528a.782.782,0,0,0-1.074-.041.768.768,0,0,0-.027,1.112l1.086,1.086a.768.768,0,0,0,1.086,0l2.172-2.172a.768.768,0,1,0-1.086-1.086Z" transform="translate(-113.857 -67.163)"/><path class="a" d="M174.483,191.012l-1.629,1.629-.528-.528a.782.782,0,0,0-1.074-.041.768.768,0,0,0-.027,1.112l1.086,1.086a.768.768,0,0,0,1.086,0l2.172-2.172a.768.768,0,1,0-1.086-1.086Z" transform="translate(-113.857 -181.02)"/><path class="a" d="M174.483,311.012l-1.629,1.629-.528-.528a.782.782,0,0,0-1.074-.041.768.768,0,0,0-.027,1.112l1.086,1.086a.768.768,0,0,0,1.086,0l2.172-2.172a.768.768,0,1,0-1.086-1.086Z" transform="translate(-113.857 -294.876)"/></g></svg>